<svg id="Calque_1" data-name="Calque 1" xmlns="http://www.w3.org/2000/svg" viewBox="0 0 1900 1900"><defs><style>.cls-1{fill:#fff;}</style></defs><title>Arckipel - Logo</title><polygon class="cls-1" points="327.63 1092.45 365.73 1065.2 585.29 908.2 365.73 744.07 365.73 770.1 549.98 907.83 365.73 1039.58 327.63 1066.83 327.63 1066.83 105.3 907.85 327.63 742.33 327.63 716.35 69.95 908.18 327.63 1092.45 327.63 1092.45"/><polygon class="cls-1" points="327.63 813.58 198.85 908.09 327.63 1000.82 327.63 975.14 234.3 907.93 327.63 839.43 327.63 813.58"/><polygon class="cls-1" points="327.63 1158.03 69.95 973.51 69.95 999.14 327.62 1183.65 327.63 1183.65 585.29 999.72 585.29 974.11 327.64 1158.03 327.63 1158.03"/><path class="cls-1" d="M878.5,885.72v136.77h-14V991.58c-11.49,20.51-32.55,33.91-58.81,33.91-38.84,0-70.85-30.9-70.85-71.39s32-71.39,70.85-71.39c26.26,0,47.32,13.4,58.81,33.92V885.72Zm-14,68.38c0-32.55-25.17-58.26-57.72-58.26s-58,25.71-58,58.26,25.44,58.27,58,58.27S864.55,986.65,864.55,954.1Z"/><path class="cls-1" d="M980,883.81v13.12c-23.52,0-45.68,14.5-45.68,49.51v76H920.62V885.72h13.67v26.81C943.59,890.92,961.37,883.81,980,883.81Z"/><path class="cls-1" d="M990.09,954.1c0-40.48,30.64-71.39,71.94-71.39,26.81,0,49.78,13.68,59.63,35l-11.22,6.57c-7.93-17.23-26.53-28.45-48.41-28.45-33.1,0-58,25.71-58,58.26s24.89,58.27,58,58.27c22.16,0,40.21-11.49,49.24-28.45l11.48,6.84c-10.94,21.06-33.91,34.73-60.72,34.73C1020.73,1025.49,990.09,994.59,990.09,954.1Z"/><path class="cls-1" d="M1285,885.72h13.68v136.77H1285Z"/><path class="cls-1" d="M1484.08,954.1c0,40.49-31.73,71.39-70.85,71.39-26.53,0-47.59-13.67-58.8-34.73v86.43h-13.68V885.72h13.68v31.73c11.21-21.06,32.27-34.74,58.8-34.74C1452.35,882.71,1484.08,913.62,1484.08,954.1Zm-13.68,0c0-32.55-25.44-58.26-58-58.26s-58,25.71-58,58.26,25.43,58.27,58,58.27S1470.4,986.65,1470.4,954.1Z"/><path class="cls-1" d="M1646.28,954.65c0,2.19-.27,4.38-.27,6.57H1522.1c3.28,30.9,26.8,51.15,58,51.15,22.43,0,39.38-10.4,47.32-24.9l12,7.12c-11.21,18.6-32.55,30.9-59.63,30.9-42.12,0-71.94-30.08-71.94-71.39,0-40.21,29-71.39,70.85-71.39C1620.29,882.71,1646.28,917.18,1646.28,954.65Zm-124.18-6.84h110c-3-33.37-26.54-52-53.34-52C1547.54,895.84,1524.83,917.45,1522.1,947.81Z"/><path class="cls-1" d="M1678.28,822.81H1692v199.68h-13.68Z"/><path class="cls-1" d="M1768,839.89h-16.14v46.23h-9V839.89h-16.14v-8.48H1768Zm62.09-8.48v54.71h-9V847l-17.78,28.44h-1.1L1784.37,847v39.11h-9V831.41h9l18.33,29.27L1821,831.41Z"/><polygon class="cls-1" points="1254.87 885.72 1235.72 885.72 1166.52 947.81 1166.52 947.68 1152.84 959.93 1152.84 1022.49 1166.52 1022.49 1166.52 955.2 1239 1022.49 1257.6 1022.49 1181.29 951.37 1254.87 885.72"/><polygon class="cls-1" points="1284.9 858.53 1284.9 868.9 1298.52 868.96 1298.52 846.31 1284.9 858.53"/><line class="cls-1" x1="1152.18" y1="960.46" x2="1203.29" y2="914.92"/><polygon class="cls-1" points="1166.52 831.01 1152.84 831.01 1152.84 942.94 1166.52 930.75 1166.52 831.01"/></svg>