<?xml version="1.0" encoding="utf-8"?>
<!-- Generator: Adobe Illustrator 24.0.1, SVG Export Plug-In . SVG Version: 6.00 Build 0)  -->
<svg version="1.1" id="Calque_1" xmlns="http://www.w3.org/2000/svg" xmlns:xlink="http://www.w3.org/1999/xlink" x="0px" y="0px"
	 viewBox="0 0 112.3 21.6" style="enable-background:new 0 0 112.3 21.6;" xml:space="preserve">
<style type="text/css">
	.st0{fill:#2C72E7;}
	.st1{fill:#FFFFFF;}
	.st2{fill:none;}
</style>
<polygon class="st0" points="12.1,17.3 13.8,16 23.8,8.9 13.8,1.4 13.8,2.6 22.2,8.8 13.8,14.9 12.1,16.1 12.1,16.1 1.9,8.8 
	12.1,1.3 12.1,0.1 0.3,8.9 12.1,17.3 "/>
<polygon class="st0" points="12.1,4.5 6.2,8.9 12.1,13.1 12.1,11.9 7.8,8.9 12.1,5.7 "/>
<polygon class="st0" points="12.1,20.3 0.3,11.8 0.3,13 12.1,21.5 12.1,21.5 23.8,13 23.8,11.9 12.1,20.3 "/>
<path class="st1" d="M42.1,6.1v10h-1v-2.3c-0.8,1.5-2.4,2.5-4.3,2.5c-2.8,0-5.2-2.3-5.2-5.2s2.3-5.2,5.2-5.2c1.9,0,3.5,1,4.3,2.5
	V6.1H42.1z M41.1,11.1c0-2.4-1.8-4.3-4.2-4.3s-4.2,1.9-4.2,4.3s1.9,4.3,4.2,4.3S41.1,13.5,41.1,11.1L41.1,11.1z"/>
<path class="st1" d="M49.6,5.9v1c-1.7,0-3.3,1.1-3.3,3.6v5.6h-1v-10h1v2C46.9,6.5,48.2,5.9,49.6,5.9z"/>
<path class="st1" d="M50.3,11.1c0-3,2.2-5.2,5.3-5.2c2,0,3.6,1,4.4,2.6l-0.8,0.5c-0.6-1.3-1.9-2.1-3.5-2.1c-2.4,0-4.2,1.9-4.2,4.3
	s1.8,4.3,4.2,4.3c1.6,0,2.9-0.8,3.6-2.1l0.8,0.5c-0.8,1.5-2.5,2.5-4.4,2.5C52.5,16.3,50.3,14.1,50.3,11.1z"/>
<path class="st1" d="M71.9,6.1h1v10h-1V6.1z"/>
<path class="st1" d="M86.5,11.1c0,3-2.3,5.2-5.2,5.2c-1.9,0-3.5-1-4.3-2.5v6.3h-1v-14h1v2.3c0.8-1.5,2.4-2.5,4.3-2.5
	C84.2,5.9,86.5,8.1,86.5,11.1z M85.5,11.1c0-2.4-1.9-4.3-4.2-4.3S77,8.7,77,11.1s1.9,4.3,4.2,4.3S85.5,13.5,85.5,11.1L85.5,11.1z"/>
<path class="st1" d="M98.4,11.1c0,0.2,0,0.3,0,0.5h-9.1c0.2,2.3,2,3.7,4.2,3.7c1.6,0,2.9-0.8,3.5-1.8l0.9,0.5
	c-0.8,1.4-2.4,2.3-4.4,2.3c-3.1,0-5.3-2.2-5.3-5.2c0-2.9,2.1-5.2,5.2-5.2C96.5,5.9,98.4,8.4,98.4,11.1z M89.3,10.6h8.1
	c-0.2-2.4-1.9-3.8-3.9-3.8C91.1,6.8,89.5,8.4,89.3,10.6z"/>
<path class="st1" d="M100.7,1.5h1v14.6h-1L100.7,1.5z"/>
<path class="st1" d="M107.3,2.7h-1.2v3.4h-0.7V2.7h-1.2V2.1h3V2.7z M111.8,2.1v4h-0.7V3.2l-1.3,2.1h-0.1l-1.3-2.1v2.9h-0.7v-4h0.7
	l1.3,2.1l1.3-2.1L111.8,2.1z"/>
<polygon class="st1" points="69.7,6.1 68.3,6.1 63.2,10.6 63.2,10.6 62.2,11.5 62.2,16.1 63.2,16.1 63.2,11.2 68.5,16.1 69.9,16.1 
	64.3,10.9 "/>
<polygon class="st1" points="71.9,4.1 71.9,4.9 72.9,4.9 72.9,3.2 "/>
<line class="st2" x1="62.2" y1="11.6" x2="65.9" y2="8.2"/>
<polygon class="st1" points="63.2,2.1 62.2,2.1 62.2,10.3 63.2,9.4 "/>
</svg>
